<!DOCTYPE svg PUBLIC "-//W3C//DTD SVG 1.1//EN" "http://www.w3.org/Graphics/SVG/1.1/DTD/svg11.dtd">
<!-- Uploaded to: SVG Repo, www.svgrepo.com, Transformed by: SVG Repo Mixer Tools -->
<svg fill="#919191" height="64px" width="64px" version="1.1" id="Layer_1" xmlns="http://www.w3.org/2000/svg" xmlns:xlink="http://www.w3.org/1999/xlink" viewBox="0 0 501.333 501.333" xml:space="preserve" stroke="#919191">
<g id="SVGRepo_bgCarrier" stroke-width="0"/>
<g id="SVGRepo_tracerCarrier" stroke-linecap="round" stroke-linejoin="round"/>
<g id="SVGRepo_iconCarrier"> <g> <g> <path d="M500.362,480V203.733c0-8.533-4.267-16-10.667-19.2l-149.333-81.067c-6.4-4.267-13.867-4.267-20.267,0 s-10.667,10.667-10.667,18.133v45.867l-113.067-60.8l-3.2-86.4C192.095,8.533,183.562,0,171.829,0H39.562 C27.829,0,18.229,8.533,18.229,20.267L1.162,480c-1.067,5.333,1.067,10.667,5.333,14.933s9.6,6.4,14.933,6.4h458.667 C491.829,501.333,501.429,491.733,500.362,480z M42.762,458.667l16-418.133h92.8l9.6,418.133H42.762z M309.429,458.667h-99.2 L202.762,156.8l106.667,58.667V458.667z M459.829,458.667H352.095V156.8l107.733,58.667V458.667z"/> </g> </g> </g>
</svg>