<?xml version="1.0" encoding="utf-8"?>
<!-- Generator: Adobe Illustrator 27.5.0, SVG Export Plug-In . SVG Version: 6.00 Build 0)  -->
<svg version="1.1" id="_x2018_ëîé_x5F_1" xmlns="http://www.w3.org/2000/svg" xmlns:xlink="http://www.w3.org/1999/xlink"
	 x="0px" y="0px" viewBox="0 0 3200 2000" style="enable-background:new 0 0 3200 2000;" xml:space="preserve">
<rect style="fill:#FFFFFF;" width="3200" height="2000"/>
<g>
	<path style="opacity:0.3;fill:#9DB0F4;" d="M2996.6,1804.197l-1242.202-0.578h-15.24l-108.703-0.043h-14.031l-103.735-0.044
		l-17.736-0.011l-144.544-0.065l-25.482-0.021l-117.886-0.055h-17.605l-14.446-0.011l-203.177-0.098l-35.482-0.012l-165.886-0.076
		l-24.523-0.011l-360.315-0.174c0,0-288.512-393.313-179.134-798.208c25.405-94.018,72.261-188.666,149.175-279.153
		c22.561-26.549,47.716-52.75,75.671-78.461c500.807-460.618,986.602-266.853,1056.008-266.853
		c334.594,0,253.759-211.195,624.26-243.507c783.6-68.339,667.053,653.489,667.042,653.522c-0.011,0.033-11.58,39.698-15.154,54.471
		c-5.186,21.375-9.085,41.529-11.787,60.561c-0.741,5.164-1.395,10.241-1.938,15.241c-4.031,35.613-3.792,67.195-0.143,95.607
		c12.648,98.658,66.27,159.012,124.805,215.662c17.844,17.268,36.136,34.175,53.86,51.726c2.179,2.135,4.347,4.303,6.493,6.471
		c3.704,3.727,7.365,7.495,10.992,11.298c14.914,15.622,29.153,31.963,42.041,49.655c2.821,3.835,5.556,7.735,8.225,11.712
		c3.138,4.673,6.188,9.445,9.119,14.325c9.336,15.503,17.594,32.095,24.425,50.114
		C3061.257,1510.87,3062.03,1625.26,2996.6,1804.197z"/>
	<path style="fill:#2E3552;" d="M3100.48,1806.237H196.488c-1.938,0-3.523-1.585-3.523-3.523v-1.767
		c0-1.938,1.585-3.523,3.523-3.523H3100.48c1.938,0,3.524,1.586,3.524,3.523v1.767
		C3104.005,1804.652,3102.419,1806.237,3100.48,1806.237z"/>
	<g style="opacity:0.3;">
		<polygon style="fill:#9DB0F4;" points="1674.564,1099.879 1720.994,1071.285 1744.774,1102.427 1777.615,1102.144 
			1776.199,1130.454 1737.98,1131.304 1726.939,1172.07 1758.364,1204.345 1750.437,1226.993 1712.501,1204.911 1682.491,1211.705 
			1657.012,1165.843 1684.757,1171.505 1703.927,1114.317 		"/>
		<g>
			<path style="fill:#9DB0F4;" d="M1767.787,1016.382l-4.424-11.024l-48.565,62.838l-2.277,8.313l-10.164,37.04l-8.182,29.851v0.011
				l-16.396,59.798l-1.842,6.7l-0.294,1.067l7.822,139.675l11.024-13.117c1.395-1.666,34.48-41.365,60.376-100.814
				C1789.357,1157.495,1793.824,1081.312,1767.787,1016.382z M1754.191,1200.059c-2.778,8.236-5.796,16.222-8.967,23.902
				c-16.711,40.526-37.65,72.806-50.189,90.346l-5.697-101.872l0.664-2.43l36.18-131.929l1.014-3.704l32.159-41.604
				c7.844,23.248,11.298,46.605,11.537,69.429c0.109,9.575-0.359,19.064-1.285,28.401
				C1767.166,1154.957,1761.512,1178.39,1754.191,1200.059z"/>
		</g>
		<polygon style="fill:#9DB0F4;" points="1193.286,940.49 1171.77,995.979 1657.012,1165.843 1674.564,1099.879 		"/>
		<rect x="1301.998" y="1071.285" style="fill:#9DB0F4;" width="78.137" height="50.393"/>
		<rect x="1324.93" y="1040.144" style="fill:#9DB0F4;" width="25.479" height="31.425"/>
		<g>
			<polygon style="fill:#9DB0F4;" points="1333.119,1125.368 1324.926,1169.424 1207.04,1803.38 1189.435,1803.38 
				1194.239,1777.528 1316.2,1121.675 1316.734,1118.82 1323.881,1121.675 1324.926,1122.1 			"/>
		</g>
		<g>
			<polygon style="fill:#9DB0F4;" points="1512.688,1803.532 1494.952,1803.521 1355.801,1121.675 1351.617,1101.183 
				1367.893,1094.047 1373.536,1121.675 			"/>
		</g>
		<polygon style="fill:#9DB0F4;" points="1350.408,1097.62 1350.408,1803.456 1324.926,1803.435 1324.926,1097.62 		"/>
	</g>
	<g style="opacity:0.3;">
		<g>
			<polygon style="fill:#9DB0F4;" points="1304.443,590.344 1338.539,522.502 1389.496,542.004 1428.199,517.646 1447.231,552.226 
				1402.568,581.19 1419.307,637.569 1480.149,652.822 1487.324,685.456 1426.222,687.041 1395.636,717.044 1331.897,681.34 
				1368.912,667.754 1349.794,585.973 			"/>
			<g>
				<path style="fill:#9DB0F4;" d="M1499.68,693.739c-9.391-65.518-28.88-123.29-57.554-171.66
					c-23.456-39.557-53.055-72.817-88.309-98.854l-13.302-9.827l-10.306,97.906l-1.274,12.071l3.377,11.515v0.011l15.067,51.301
					l12.169,41.485l0.011,0.033l24.272,82.709l2.724,9.271l0.436,1.493l111.426,159.774l3.475-23.619
					C1502.328,854.363,1512.492,783.127,1499.68,693.739z M1485.551,829.438l-81.271-116.546l-0.98-3.355v-0.011l-53.654-182.772
					l-1.503-5.12l0.904-8.618l6.766-64.21c25.384,21.037,45.974,45.178,62.642,70.976c0.61,0.948,1.22,1.896,1.819,2.855
					c7.125,11.265,13.52,22.834,19.25,34.589c14.925,30.646,25.351,62.533,32.541,93.571c2.734,11.788,5,23.455,6.863,34.883
					C1488.786,745.923,1487.577,799.489,1485.551,829.438z"/>
			</g>
			<polygon style="fill:#9DB0F4;" points="617.606,753.544 632.703,835.028 1331.897,681.34 1304.443,590.344 			"/>
		</g>
		<rect x="904.4" y="804.801" style="fill:#9DB0F4;" width="108.803" height="70.17"/>
		<rect x="936.332" y="761.438" style="fill:#9DB0F4;" width="35.479" height="43.758"/>
		<g>
			<polygon style="fill:#9DB0F4;" points="947.747,878.777 936.33,938.303 770.444,1803.184 745.921,1803.173 923.954,874.975 
				924.924,869.942 936.33,874.354 937.92,874.975 			"/>
		</g>
		<g>
			<polygon style="fill:#9DB0F4;" points="1199.676,1803.38 1189.435,1803.38 1174.989,1803.369 979.558,874.975 973.49,846.138 
				996.15,836.497 1004.244,874.975 1194.239,1777.528 			"/>
		</g>
		<polygon style="fill:#9DB0F4;" points="971.813,841.313 971.813,1803.271 936.33,1803.26 936.33,841.313 		"/>
	</g>
	<g>
		<g>
			<path style="fill:#F99746;" d="M1538.42,1400.828v279.393H732.031c-47.39,0-93.429-9.304-136.853-27.66
				c-41.866-17.725-79.43-43.043-111.677-75.269c-32.225-32.235-57.543-69.81-75.268-111.676
				c-18.356-43.414-27.66-89.464-27.66-136.843v-286.452c0-20.699-16.842-37.53-37.552-37.53H206.472
				c25.405-94.018,72.261-188.666,149.175-279.153c38.282,1.492,75.497,9.783,110.794,24.719
				c37.759,15.971,71.629,38.805,100.695,67.871c29.065,29.044,51.9,62.936,67.86,100.684c16.57,39.165,24.97,80.683,24.97,123.41
				v286.452c0,39.731,32.334,72.055,72.065,72.055H1538.42z"/>
		</g>
		<rect x="1515.718" y="1379.553" style="fill:#E27C30;" width="45.41" height="314.009"/>
	</g>
	<g id="P297LW_1_">
		<g>
			<path style="fill:#FFB27D;" d="M1979.239,716.164c0,0-65.438,11.55-88.774,48.815c-23.338,37.264-73.225,173.281-67.934,197.249
				c5.292,23.967,67.582,79.103,67.582,79.103L1979.239,716.164z"/>
			<path style="fill:#233862;" d="M2073.069,606.899c0,0,20.734-43.695,4.489-70.584c-16.246-26.889-80.668-28.57-80.668-28.57
				s5.603,3.081,5.883,5.882c0.279,2.801-18.486-7.282-31.371,15.405c-12.885,22.688-12.272,43.923,1.427,75.32
				C1986.527,635.749,2073.069,606.899,2073.069,606.899z"/>
			<path style="fill:#FF9E55;" d="M2133.221,1021.797c2.57,39.197,4.892,74.963,4.956,77.218
				c0.175,4.445-21.962,20.034-59.134,31.822c-8.977,2.843-18.847,5.469-29.479,7.647c-19.075,3.922-40.657,6.449-64.134,6.362
				c-7.67-0.032-14.947-0.414-21.811-1.101c-50.647-4.968-69.526-60.256-70.899-283.663c-36.07-6.014-43.795-23.499-43.795-23.499
				s25.569-61.683,52.75-92.601c11.776-13.4,28.292-21.592,43.229-26.549c8.835-2.941,17.114-4.75,23.531-5.85
				c7.768-1.34,12.801-1.634,12.801-1.634s42.128-3.736,101.85,1.384c18.717,1.612,55.898,12.202,71.858,24.261
				c15.164,11.461-6.261,51.995-19.541,103.165c-5.621,21.647,46.484,67.897,47.171,75.806
				C2182.91,918.433,2130.126,974.287,2133.221,1021.797z"/>
			<path style="fill:#FFB27D;" d="M2065.607,708.475c0.448-20.54,0.109-45.065-2.666-65.784l-81.984,13.398
				c0,0,0,25.016,0.36,52.778c-0.05,0.007-0.081,0.011-0.081,0.011s-2.235,25.752,29.482,29.52
				C2042.438,742.167,2066.462,728.349,2065.607,708.475z"/>
			<path style="fill:#233862;" d="M1997.021,1797.357c10.307-6.345,4.251-53.362,4.251-53.362s-48.282-38.329-54.79-8.819
				c-6.509,29.51-45.57,42.895-67.821,46.589c-15.359,2.55-20.085,11.08-21.54,16.12L1997.021,1797.357z"/>
			<path style="fill:#233862;" d="M2144.967,1797.357c10.307-6.345,4.252-53.362,4.252-53.362s-48.283-38.329-54.792-8.819
				c-6.508,29.51-45.57,42.895-67.82,46.589c-15.359,2.55-20.085,11.08-21.54,16.12L2144.967,1797.357z"/>
			<path style="fill:#2A4E96;" d="M2138.177,1099.004v0.065c0,0.076-0.011,0.163-0.021,0.262c-0.021,0.087-0.043,0.196-0.076,0.294
				c-0.032,0.108-0.076,0.218-0.131,0.326c-0.044,0.12-0.108,0.24-0.174,0.36c-0.262,0.479-0.654,1.023-1.188,1.623
				c-0.218,0.229-0.447,0.479-0.697,0.729c-0.251,0.251-0.523,0.513-0.807,0.785c-0.588,0.533-1.253,1.1-1.993,1.71
				c-0.883,0.697-1.874,1.438-2.964,2.223c-0.294,0.207-0.588,0.414-0.893,0.621h-0.012c-0.37,0.25-0.74,0.501-1.122,0.763
				c-0.381,0.25-0.773,0.512-1.187,0.773c-0.415,0.261-0.828,0.522-1.253,0.795c-0.436,0.262-0.872,0.533-1.318,0.806
				c-0.447,0.272-0.904,0.545-1.373,0.817s-0.947,0.556-1.438,0.839h-0.012c-0.969,0.556-1.993,1.122-3.05,1.699
				c-1.057,0.567-2.157,1.145-3.29,1.732h-0.011c-1.515,0.773-3.095,1.558-4.75,2.354c-1.656,0.784-3.378,1.579-5.164,2.375
				c-0.894,0.392-1.798,0.795-2.724,1.188c-0.469,0.196-0.937,0.392-1.405,0.599c-0.828,0.338-1.667,0.687-2.517,1.035
				c-0.599,0.251-1.209,0.49-1.83,0.74h-0.011c-0.992,0.393-1.994,0.785-3.007,1.178c-1.536,0.588-3.105,1.176-4.707,1.753
				c-0.795,0.284-1.611,0.567-2.429,0.861c-2.462,0.86-4.989,1.699-7.593,2.527c-0.817,0.262-1.646,0.522-2.484,0.773
				c-0.011,0-0.022,0.011-0.033,0.011c-1.1,0.338-2.2,0.664-3.322,0.991c-1.133,0.327-2.277,0.654-3.442,0.98
				c-0.011,0-0.011,0.011-0.021,0.011c-0.022,0.022-0.044,0.044-0.056,0.076c-3.464,40.68-12.844,98.146-21.319,153.608
				c0,0,0,0,0,0.022c-2.189,14.369-4.304,28.607-6.265,42.378c-5.163,36.464-9.031,69.68-9.444,93.593v0.25
				c-0.186,10.971,9.074,38.337,9.771,44.655c0.425,3.868,0.773,7.964,1.024,12.245c0.937,15.928,0.664,34.557-0.502,54.461v0.011
				c-0.087,1.492-0.174,2.995-0.271,4.499c-1.101,17.049-2.811,34.949-4.936,52.881c-0.697,5.915-1.449,11.831-2.233,17.714
				c-9.957,75.018-25.95,145.579-32.715,149.479c-0.044,0.021-0.087,0.054-0.131,0.065c-17.692,10.099-49.732-0.088-66.041-2.463
				c-0.816-0.119-1.612-0.315-2.386-0.566c0,0,0,0-0.011,0c-5.6-1.862-9.739-7.037-9.435-13.029
				c2.136-41.79,2.059-87.96,0.469-135.741c-0.186-5.851-0.403-11.723-0.643-17.616c-5.066-126.231-19.904-261.232-31.909-355.054
				c-0.447-3.486-0.894-6.906-1.329-10.262c-2.049-15.808-3.41-30.559-4.26-43.86c-0.785-11.668-1.155-22.257-1.329-31.44
				c-0.033-2.865-0.065-5.6-0.076-8.182c-0.022-3.715,1.274-16.537,2.756-51.476v-0.011c0.239-5.763,0.49-12.125,0.741-19.163
				c0.294-8.442,0.599-17.855,0.882-28.313c0.011-0.349,0.022-0.687,0.033-1.035c0.174-6.58,0.359-13.574,0.522-21.004
				c0.523-22.41,0.98-48.795,1.341-79.855c0.043-4.477,0.098-9.053,0.142-13.727c0.195-20.307,0.348-42.487,0.436-66.694
				c0.043-10.774,0.076-21.963,0.087-33.565c0-2.909,1.188-5.556,3.104-7.463c1.918-1.917,4.565-3.104,7.463-3.104h153.837
				c14.86,0,26.821,12.158,26.637,27.028c-0.24,19.185,0.458,45.984,4.619,71.553c4.946,30.428,14.805,59.101,33.859,71.172
				c2.756,1.754,5.697,3.159,8.846,4.162c0.076,0.033,0.152,0.055,0.229,0.076c0.022,0.011,0.044,0.022,0.055,0.044
				c0.12,0.261,0.807,1.786,1.906,4.335c0,0.011,0.012,0.022,0.012,0.033c0.229,6.319,0.501,12.746,0.795,19.294
				c0.055,1.318,0.108,2.648,0.174,3.966c0.033,0.784,0.077,1.547,0.109,2.331c0.065,1.329,0.131,2.669,0.196,4.009
				c0.098,2.2,0.218,4.423,0.338,6.667c0.098,1.766,0.195,3.52,0.294,5.295c0.185,3.399,0.392,6.853,0.61,10.328
				c0.01,0.195,0.021,0.392,0.032,0.588v0.011c0.055,0.915,0.108,1.819,0.186,2.745c0.294,4.5,0.599,9.064,0.947,13.65
				c0.099,1.417,0.207,2.822,0.315,4.249c0.044,0.687,0.099,1.362,0.153,2.048c0.142,1.798,0.283,3.606,0.436,5.415
				c0.152,1.917,0.316,3.846,0.49,5.784C2138.896,1087.761,2137.992,1094.059,2138.177,1099.004z"/>
			<path style="fill:#233862;" d="M2042.939,1534.893v0.011c-0.087,1.492-0.174,2.995-0.271,4.499
				c-1.101,17.049-2.811,34.949-4.936,52.881c-0.697,5.915-1.449,11.831-2.233,17.714c-9.957,75.018-25.95,145.579-32.715,149.479
				c-0.044,0.021-0.087,0.054-0.131,0.065c-17.692,10.099-49.732-0.088-66.041-2.463c-0.816-0.119-1.612-0.315-2.386-0.566
				c0,0,0,0-0.011,0c-5.6-1.862-9.739-7.037-9.435-13.029c2.136-41.79,2.059-87.96,0.469-135.741
				c-0.186-5.851-0.403-11.723-0.643-17.616c-5.066-126.231-19.904-261.232-31.909-355.054
				c-0.447-3.486,36.212-116.666,77.926-6.787c0,0.012,0.011,0.022,0.011,0.044c18.444,47.728,62.011,170.363,62.011,194.952v0.25
				c-0.186,10.971,9.074,38.337,9.771,44.655c0.425,3.868,0.773,7.964,1.024,12.245
				C2044.378,1496.359,2044.105,1514.988,2042.939,1534.893z"/>
			<path style="fill:#2A4E96;" d="M2174.586,1596.957c-0.262,6.046-0.578,12.07-0.916,18.04
				c-4.161,71.869-13.596,136.461-19.238,140.808c-1.21,0.927-2.517,1.754-3.9,2.495c-17.158,9.107-46.736,4.02-62.01,3.813
				c-3.312-0.054-6.449-1.241-8.868-3.235c-2.593-2.124-4.368-5.164-4.651-8.672c-3.159-39.034-8.737-81.63-15.873-125.599
				c-0.947-5.829-1.917-11.679-2.909-17.551c-4.063-23.858-8.53-48.021-13.28-72.163c-21.482-109.117-48.707-217.721-69.199-294.482
				c-1.09-4.096-2.125-8.127-3.105-12.081c0-0.021-0.011-0.032-0.011-0.044c-9.347-37.781-13.585-68.633-15.426-85.922
				c-0.12-1.111-0.229-2.157-0.327-3.148c-0.773-7.714-0.991-11.973-0.991-11.973s30.896-19.86,67.348-38.937
				c1.035-0.533,2.07-1.067,3.105-1.612c8.214-4.249,16.679-8.421,25.089-12.311c26.571-12.245,52.729-21.505,69.538-20.503
				c8.301,0.49,14.326,3.486,16.995,9.849c0.708,1.678,1.188,3.605,1.405,5.773c6.755,66.673,28.325,372.626,29.86,378.792
				C2175.98,1483.504,2177.059,1541.08,2174.586,1596.957z"/>
			<path style="fill:#2A4E96;" d="M2088.621,712.084c0,0-47.6,55.451-50.391,103.836h24.192c0,0,6.164-52.601,41.988-100.521
				L2088.621,712.084z"/>
			<path style="fill:#2A4E96;" d="M1968.435,711.584c-32.389,52.281-36.288,104.334-36.288,104.334h-24.186
				c1.917-37.411,23.499-77.142,36.942-98.484C1953.738,714.493,1962.018,712.684,1968.435,711.584z"/>
			<path style="fill:#ED975D;" d="M2064.935,663.877c0,0-20.312,24.016-41.981,24.068c-27.013,0.065-41.723-25.932-41.723-25.932
				L2064.935,663.877z"/>
			<path style="fill:#FFB27D;" d="M1983.391,664.077c7.967,6.268,31.324,12.492,38.077,13.22c0,0,34.636-7.724,40.932-11.522
				c9.751-5.911,9.123-17.874,9.623-34.507c0.6-19.688,2.584-35.15,0.385-46.5c-2.612-13.577-11.222-21.301-35.32-23.4
				c-44.244-3.84-62.676,7.239-63.447,22.072c-0.2,3.983-0.386,7.781-0.514,11.378
				C1971.355,641.077,1975.01,657.481,1983.391,664.077z"/>
			<path style="fill:#233862;" d="M2073.069,606.899c0,0,3.648-39.494-19.6-39.494c-23.247,0-54.618,29.69-68.623,10.643
				s-12.018,26.303-12.018,26.303l-1.427-60.755l89.631-3.361l18.766,14.005L2073.069,606.899z"/>
			<polygon style="fill:#233862;" points="2038.23,1139.19 1901.537,1139.241 1848.925,940.49 1985.618,940.44 			"/>
			<path style="fill:#FFB27D;" d="M2196.773,832.949c0,0,19.973,124.72,16.705,159.682c-3.269,34.962-162.366,86.164-162.366,86.164
				l-12.882-33.67c0,0,102.643-66.69,100.271-77.517c-2.372-10.828-21.644-108.71-21.518-112.958
				C2117.108,850.403,2137.147,865.599,2196.773,832.949z"/>
			<path style="fill:#FFB27D;" d="M2038.23,1045.125c0,0-37.955-1.554-57,8.25c-19.046,9.805-34.938,22.96-27.354,31.271
				c7.583,8.312,36.477-3.31,48.74,3.228c12.263,6.536,48.496-9.079,48.496-9.079L2038.23,1045.125z"/>
			<path style="fill:#FFB27D;" d="M2038.23,1045.125c0,0-30.29-13.901-30.29-10.27c0,3.631,2.905,8.715,9.079,12.347
				C2023.192,1050.833,2038.23,1045.125,2038.23,1045.125z"/>
			<path style="fill:#FF9E55;" d="M2146.669,730.409c0,0,15.243,3.766,34.126,45.164c18.884,41.398,26.873,73.244,26.873,73.244
				s-15.503,29.161-103.257,37.15c0,0-27.725-78.438,0-114.753C2132.135,734.901,2146.669,730.409,2146.669,730.409z"/>
			<path style="fill:#FFB27D;" d="M1883.306,1070.367c0,0,14.987,1.996,22.996-4.177s-22.537-32.964-31.987-29.789
				C1864.863,1039.576,1873.635,1063.777,1883.306,1070.367z"/>
			<path style="fill:#9DB0F4;" d="M1979.706,926.741c0,0,10.462,1.715,5.912,13.698h-46.674l14.932-13.698H1979.706z"/>
			<path style="fill:#FFFFFF;" d="M1979.706,926.741c0,0-20.608,0-27.764,16.603c-8.746,20.291-5.009,76.986-5.009,76.986h-109.669
				c0,0-17.313-66.629,18.884-93.589H1979.706z"/>
			<path style="fill:#FF9E55;" d="M2092.078,578.708l-138.219,1.478c0,0-2.027-41.677,21.926-68.253
				c1.094-1.23,2.253-2.419,3.477-3.576c5.169-4.91,11.394-9.148,18.879-12.27c27.627-11.525,50.544-0.889,64.861,10.006
				c1.412,1.065,2.739,2.14,3.973,3.205c7.785,6.615,12.131,12.518,12.131,12.518S2092.526,540.122,2092.078,578.708z"/>
			<g>
				<path style="fill:#E27830;" d="M2001.5,579.711l-8.178,0.086c-1.159-30.462-13.366-63.119-16.609-68.825
					c1.094-1.23,1.325-1.458,2.549-2.615C1981.505,512.12,2000.2,545.849,2001.5,579.711z"/>
			</g>
			<g>
				<path style="fill:#E27830;" d="M2053.292,579.108l-7.594,0.086c-0.159-2.202,0.215-52.365,18.926-71.84
					c1.411,1.065,1.117,0.879,2.351,1.943C2049.208,526.446,2053.255,578.592,2053.292,579.108z"/>
			</g>
			<path style="fill:#E27830;" d="M1953.859,580.187c0,0-0.042,13.944,63.886,13.816c71.935-0.144,74.333-15.294,74.333-15.294
				L1953.859,580.187z"/>
		</g>
		<g style="opacity:0.8;">
			<path style="fill:#FFFFFF;" d="M2174.586,1596.957c-46.486,11.776-93.527,11.449-118.366,10.099
				c0.992,5.872,1.962,11.722,2.909,17.551c1.71,0.076,3.508,0.152,5.382,0.218c26.189,0.926,67.206,0.098,109.16-9.827
				L2174.586,1596.957z"/>
		</g>
		<g style="opacity:0.4;">
			<path style="fill:#FFFFFF;" d="M2037.732,1592.283c-0.697,5.915-1.449,11.831-2.233,17.714
				c-42.585,4.303-83.09,1.22-110.249-2.255c-0.186-5.851-0.403-11.723-0.643-17.616
				C1951.625,1593.699,1994.145,1597.196,2037.732,1592.283z"/>
		</g>
	</g>
	<g id="P297LW_2_">
		<path style="fill:#FFB27D;" d="M2433.634,850.778c0,0-16.031,91.197-33.567,186.468
			c-19.049,103.557-39.874,211.932-43.809,213.287c-7.551,2.606-18.86-12.391-24.047-24.966
			c-4.166-10.111-12.406-88.307-8.24-142.31c1.014-13.181,2.236-24.006,3.656-30.716c7.215-34.18,8.229-154.832,30.762-174.018
			C2380.92,859.338,2433.634,850.778,2433.634,850.778z"/>
		<path style="fill:#FFB27D;" d="M2329.138,1210.267c0,0,3.901,14.928-1.765,29.542s-6.869,18.785,3.613,26.99
			c10.483,8.205,21.833,19.727,29.697,16.316s2.994-70.306,2.994-70.306L2329.138,1210.267z"/>
		<path style="fill:#233862;" d="M2360.994,1797.885c9.73-5.939,4.193-50.246,4.193-50.246s-45.34-36.271-51.574-8.501
			s-43.074,40.239-64.044,43.641c-14.476,2.347-18.957,10.364-20.346,15.106H2360.994z"/>
		<path style="fill:#233862;" d="M2562.322,1797.885c9.729-5.939,4.193-50.246,4.193-50.246s-45.341-36.271-51.575-8.501
			s-43.073,40.239-64.043,43.641c-14.476,2.347-18.957,10.364-20.346,15.106H2562.322z"/>
		<path style="fill:#2B478B;" d="M2499.318,1283.639c-16.135,68.188-36.463,146.048-44.405,189.94
			c-0.926,5.088-1.678,9.718-2.244,13.814c-0.556,4.106-0.926,7.691-1.089,10.676c-4.217,82.219-69.2,270.198-80.824,274.578
			c-17.986,6.787-46.312-7.637-61.139-12.354c-6.133-1.972-10.284-8.159-8.911-14.445c32.182-147.954,52.02-359.701,56.323-485.846
			c2.168-63.535,5.065-108.728,5.065-108.728s158.511-42.291,159.458,11.21C2521.913,1183.216,2511.89,1230.486,2499.318,1283.639z"
			/>
		<path style="fill:#233862;" d="M2499.318,1283.639c-16.135,68.188-36.463,146.048-44.405,189.94
			c-0.926,5.088-5.783,48.225-6.35,52.32l-27.75-315.284l39.351,3.628L2499.318,1283.639z"/>
		<path style="fill:#FFB27D;" d="M2451.054,772.074l0.042,7.758c0,0-2.112,24.262,27.763,27.805
			c29.876,3.553,52.509-9.461,51.699-28.183c-2.69-14.497-5.645-24.451-5.845-36.446c-0.073-4.457,0.231-9.188,1.062-14.528
			l-57.891-1.156l-17.051,2.786L2451.054,772.074z"/>
		<path style="fill:#ED975D;" d="M2450.833,730.109l0.221,41.965c6.15,2.859,13.088,4.604,20.867,4.604
			c26.606,0,43.804-19.511,52.792-33.671c-0.073-4.457,0.231-9.188,1.062-14.528l-57.891-1.156L2450.833,730.109z"/>
		<path style="fill:#2B478B;" d="M2436.92,1180.838l55.923,584.293c0,0,41.398,13.436,78.802,3.081
			c0,0,21.742-319.451,19.698-397.539s17.606-208.95-4.485-223.382S2436.92,1180.838,2436.92,1180.838z"/>
		<path style="fill:#FFB27D;" d="M2447.455,750.502c0,0,74.143,14.977,82.76-31.339c8.616-46.316,23.988-75.576-22.985-87.097
			c-46.975-11.521-59.486,4.437-66.122,19.196C2434.471,666.022,2428.39,745.412,2447.455,750.502z"/>
		<path style="fill:#233862;" d="M2526.8,729.456c0,0,25.78,5.809,28.221-41.114c0.94-18.07,5.434-81.504-46.186-79.331
			c-51.619,2.173-75.138,32.345-79.836,37.648c-35.231,39.759,50.495,10.168,61.905,19.405s0.543,24.451,13.584,29.885
			c13.041,5.434,23.364,5.434,21.191,17.388C2523.506,725.29,2526.8,729.456,2526.8,729.456z"/>
		<path style="fill:#FF9E55;" d="M2422.093,647.578c0,0,27.625,9.611,37.305,10.313c2.882,0.209,45.728,3.153,45.728,3.153
			l62.594,11.038c0,0,12.215-46.464-18.396-75.656l-0.011-0.011c-0.767-0.736-1.566-1.461-2.386-2.165
			c-8.273-7.138-19.354-13.066-34.123-16.777C2437.956,558.676,2422.408,644.866,2422.093,647.578z"/>
		<g>
			<path style="fill:#E27830;" d="M2458.565,656.577l11.826,1.577c9.25-12.226,43.462-54.632,79.54-60.918
				c-0.221-0.326-0.42-0.589-0.609-0.81l-0.011-0.011c-0.62-0.757-1.125-1.135-2.019-2.26c-0.126,0.031-0.241,0.063-0.367,0.094
				C2500.777,605.298,2466.375,645.707,2458.565,656.577z"/>
		</g>
		<path style="fill:#FF9E55;" d="M2505.125,661.044c0,0,8.06,9.111,10.162,17.871c2.103,8.76,42.75,14.016,45.553,9.461
			c2.803-4.555,6.879-16.294,6.879-16.294L2505.125,661.044z"/>
		<path style="fill:#E27830;" d="M2505.125,661.044c0,0-74.884,1.397-109.109-16.625c-2.607-1.373-2.168-5.246,0.695-5.945
			c5.141-1.256,13.904-2.655,28.347-3.185C2425.058,635.289,2451.863,657.54,2505.125,661.044z"/>
		<path style="fill:#FF9E55;" d="M2663.701,899.585c0,0-28.511-75.355-50.354-91.359c-12.604-9.238-38.271-16.668-57.739-21.309
			c-6.166-1.46-11.7-2.647-16.003-3.53c-5.584-1.127-9.076-1.735-9.175-1.752c-0.003,0-0.008-0.006-0.01-0.006
			c0,0.002,0,0.003,0,0.004c0,0-0.725,2.108-1.871,5.783c-6.465,9.973-28.487,17.535-46.979,16.33
			c-18.481-1.208-30.476-15.264-30.476-22.874l-0.018-0.018c0,0,0-0.005,0-0.005s-1.492,0.436-4.129,1.264
			c-3.867,1.231-10.219,3.322-17.942,6.21c-23.02,8.596-45.287,13.396-60.357,37.727c-22.322,36.038-31.554,82.924-31.554,82.924
			s20.478,17.848,42.451,26.378c1.034,0.401,2.187,0.198,3.258,0.192c-1.439,196.883-10.406,227.216-6.166,227.138
			c0,0,23.715,26.076,85.737,25.372c24.179-0.273,45.213-2.082,63.063-4.741c49.743-7.38,63.837-17.638,63.637-22.81
			c-0.168-4.668-2.718-129.226-3.312-135.891c-2.75-30.867-3.718-37.238-1.281-84.139
			C2630.909,929.066,2663.701,899.585,2663.701,899.585z"/>
		<path style="fill:#2B478B;" d="M2362.1,1151.272l18.936-235.879c1.091-13.58,12.74-23.857,26.351-23.245l128.987,5.052
			c10.623,0.416,19.196,8.854,19.738,19.472c1.584,30.98,7.505,91.162,29.652,107.938l11.686,170.752l-144.154,130.51
			c0,0-16.375-95.648-38.89-122.224C2401.809,1188.781,2362.1,1151.272,2362.1,1151.272z"/>
		<g>
			<path style="fill:#2B478B;" d="M2555.608,786.917l-16.94,118.725l-16.178-2.31l17.115-119.945
				C2543.908,784.27,2549.442,785.458,2555.608,786.917z"/>
		</g>
		<g>
			<path style="fill:#2B478B;" d="M2446.949,782.113l-22.3,109.258l-1.678,8.214l-1.786-0.371l-14.229-2.898l22.05-107.994
				C2436.73,785.435,2443.082,783.344,2446.949,782.113z"/>
		</g>
		<path style="fill:#FFB27D;" d="M2672.994,1043.934c0,0-86.62,49.405-155.613,60.376c0,0-13.705-17.813-9.5-25.515
			c3.148-5.773,100.641-68.503,101.164-70.453c1.307-4.782-15.172-34.294-24.563-67.869c27.915-7.088,64.293-28.49,75.046-37.336
			C2671.621,945.254,2688.529,1010.434,2672.994,1043.934z"/>
		<path style="fill:#FFB27D;" d="M2503.204,1068.212c0,0-10.383-7.94-18.36-9.119c-7.979-1.179-21.414-6.263-19.236-1.541
			c2.18,4.721,16.887,12.165,16.887,12.165L2503.204,1068.212z"/>
		<g>
			<path style="fill:#233862;" d="M2483.287,1120.675l-40.568,4.952c-4.484,0.547-8.711-2.212-10.016-6.536l-27.753-92.041
				c-1.663-5.517,2.046-11.2,7.765-11.898l40.569-4.952c4.483-0.548,8.711,2.212,10.015,6.536l27.754,92.041
				C2492.716,1114.293,2489.007,1119.977,2483.287,1120.675z"/>
			<path style="fill:#192E4F;" d="M2468.92,1122.429l-40.568,4.952c-4.484,0.547-8.712-2.212-10.016-6.536l-27.754-92.041
				c-1.663-5.517,2.047-11.2,7.766-11.898l40.568-4.952c4.484-0.548,8.711,2.212,10.016,6.536l27.754,92.041
				C2478.349,1116.047,2474.639,1121.73,2468.92,1122.429z"/>
			<path style="fill:#192E4F;" d="M2440.24,1029.666L2440.24,1029.666c-1.181,0.144-2.465-0.68-2.852-1.832l-27.18-80.753
				c-0.387-1.152,0.263-2.212,1.443-2.356l0,0c1.182-0.144,2.465,0.68,2.853,1.832l27.179,80.753
				C2442.071,1028.462,2441.422,1029.521,2440.24,1029.666z"/>
		</g>
		<path style="fill:#FFB27D;" d="M2523.534,1066.615c0,0-7.222,4.468-12.358,3.117c-4.245-1.115-7.972-1.521-12.869-4.854
			c-5.174-3.52-16.612,1.134-19.989,3.385c-9.461,6.308-41.397,6.052-41.397,12.359c0,6.307,13.893,24.036,30.712,29.292
			c16.819,5.257,49.758-5.606,49.758-5.606L2523.534,1066.615z"/>
	</g>
	<g>
		<path style="fill:#2A4E96;" d="M1561.128,1463.252c0,0,97.507,19.488,143.09,73.305s24.884,79.963-7.799,66.89
			s3.613,13.597,7.799,39.481c4.185,25.884-15,60.746-52.253,44.404c-37.252-16.342-72.52-55.561-90.837-56.65V1463.252z"/>
		<path style="fill:#2A4E96;" d="M1561.128,1412.798c0,0,90.625,7.626,97.161,39.22c6.537,31.593-97.161-11.043-97.161-11.043
			V1412.798z"/>
		<path style="fill:#2A4E96;" d="M1730.604,1623.537c0,0,46.82,36.504,27.017,56.686
			C1737.817,1700.405,1730.604,1623.537,1730.604,1623.537z"/>
		<path style="fill:#2A4E96;" d="M1561.128,1642.928c0,0,47.774,21.526,41.964,44.768c-5.81,23.241-41.964-22.384-41.964-22.384
			V1642.928z"/>
	</g>
	<rect x="368.415" y="1215.252" style="fill:#E27C30;" width="301.944" height="18.534"/>
	<rect x="368.415" y="1256.105" style="fill:#E27C30;" width="301.944" height="18.534"/>
	<g>
		<polygon style="fill:#E27C30;" points="426.284,1182.29 416.22,1182.29 411.188,1191.006 416.22,1199.721 426.284,1199.721 
			431.315,1191.006 		"/>
		<polygon style="fill:#E27C30;" points="488.38,1182.29 478.317,1182.29 473.285,1191.006 478.317,1199.721 488.38,1199.721 
			493.412,1191.006 		"/>
		<polygon style="fill:#E27C30;" points="550.477,1182.29 540.414,1182.29 535.382,1191.006 540.414,1199.721 550.477,1199.721 
			555.509,1191.006 		"/>
		<polygon style="fill:#E27C30;" points="612.574,1182.29 602.511,1182.29 597.479,1191.006 602.511,1199.721 612.574,1199.721 
			617.606,1191.006 		"/>
	</g>
	<g>
		<polygon style="fill:#E27C30;" points="426.284,1283.606 416.22,1283.606 411.188,1292.321 416.22,1301.037 426.284,1301.037 
			431.315,1292.321 		"/>
		<polygon style="fill:#E27C30;" points="488.38,1283.606 478.317,1283.606 473.285,1292.321 478.317,1301.037 488.38,1301.037 
			493.412,1292.321 		"/>
		<polygon style="fill:#E27C30;" points="550.477,1283.606 540.414,1283.606 535.382,1292.321 540.414,1301.037 550.477,1301.037 
			555.509,1292.321 		"/>
		<polygon style="fill:#E27C30;" points="612.574,1283.606 602.511,1283.606 597.479,1292.321 602.511,1301.037 612.574,1301.037 
			617.606,1292.321 		"/>
	</g>
	<g>
		
			<rect x="750.338" y="1531.403" transform="matrix(-1.836970e-16 1 -1 -1.836970e-16 2430.5613 650.7776)" style="fill:#E27C30;" width="279.108" height="18.534"/>
		
			<rect x="709.484" y="1531.402" transform="matrix(-1.836970e-16 1 -1 -1.836970e-16 2389.708 691.6308)" style="fill:#E27C30;" width="279.108" height="18.534"/>
		<g>
			<polygon style="fill:#E27C30;" points="932.121,1454.607 932.121,1445.305 923.405,1440.653 914.69,1445.305 914.69,1454.607 
				923.405,1459.259 			"/>
			<polygon style="fill:#E27C30;" points="932.121,1512.008 932.121,1502.705 923.405,1498.055 914.69,1502.705 914.69,1512.008 
				923.405,1516.659 			"/>
			<polygon style="fill:#E27C30;" points="932.121,1569.409 932.121,1560.106 923.405,1555.455 914.69,1560.106 914.69,1569.409 
				923.405,1574.061 			"/>
			<polygon style="fill:#E27C30;" points="932.121,1626.81 932.121,1617.507 923.405,1612.855 914.69,1617.507 914.69,1626.81 
				923.405,1631.461 			"/>
		</g>
		<g>
			<polygon style="fill:#E27C30;" points="830.805,1454.607 830.805,1445.305 822.089,1440.653 813.374,1445.305 813.374,1454.607 
				822.089,1459.259 			"/>
			<polygon style="fill:#E27C30;" points="830.805,1512.008 830.805,1502.705 822.089,1498.055 813.374,1502.705 813.374,1512.008 
				822.089,1516.659 			"/>
			<polygon style="fill:#E27C30;" points="830.805,1569.409 830.805,1560.106 822.089,1555.455 813.374,1560.106 813.374,1569.409 
				822.089,1574.061 			"/>
			<polygon style="fill:#E27C30;" points="830.805,1626.81 830.805,1617.507 822.089,1612.855 813.374,1617.507 813.374,1626.81 
				822.089,1631.461 			"/>
		</g>
	</g>
	<g>
		<polygon style="fill:#E27C30;" points="1481.927,1453.331 1481.927,1443.268 1473.212,1438.236 1464.496,1443.268 
			1464.496,1453.331 1473.212,1458.363 		"/>
		<polygon style="fill:#E27C30;" points="1481.927,1515.429 1481.927,1505.365 1473.212,1500.333 1464.496,1505.365 
			1464.496,1515.429 1473.212,1520.46 		"/>
		<polygon style="fill:#E27C30;" points="1481.927,1577.525 1481.927,1567.462 1473.212,1562.43 1464.496,1567.462 
			1464.496,1577.525 1473.212,1582.558 		"/>
		<polygon style="fill:#E27C30;" points="1481.927,1639.622 1481.927,1629.559 1473.212,1624.527 1464.496,1629.559 
			1464.496,1639.622 1473.212,1644.654 		"/>
	</g>
	<g>
		<path style="fill:#FFB27D;" d="M1089.095,1008.373c0,0,25.526,170.413,36.42,186.103c10.894,15.69,65.365,77.787,65.365,77.787
			l-28.325,8.568c0,0-82.038-51.61-90.588-78.024c-8.55-26.413-31.76-183.443-31.76-183.443L1089.095,1008.373z"/>
		<path style="fill:#2C3A64;" d="M916.57,859.656c0,0,4.134,16.058-22.375,22.231c-26.509,6.173-21.789,14.525-22.151,25.057
			c-0.363,10.531-61.312,21.062-19.762,53.018c41.55,31.957,100.478-19.973,100.478-19.973l-23.945-80.333H916.57z"/>
		<path style="fill:#2C3A64;" d="M860.514,796.458c-1.137,12.922,10.738,15.277,8.715,25.602
			c-4.692,23.943,14.715,32.278,33.772,30.503c11.219-1.044,17.863,13.924,17.863,13.924l68.254-117.92
			C989.118,748.567,860.948,791.521,860.514,796.458z"/>
		<path style="fill:#233862;" d="M1433.179,1797.885h-113.29c0,0-2.716-17.267,3.202-30.366c5.67-12.569,9.288-16.015,3.13-30.547
			c7.198,7.412,28.226,12.769,44.604,10.565c2.006,3.253,12.954,20.665,19.657,25.48
			C1397.886,1778.338,1430.898,1776.442,1433.179,1797.885z"/>
		<path style="fill:#233862;" d="M1233.697,1796.908h-113.291c0,0-2.715-17.267,3.203-30.366
			c5.67-12.569,16.716-20.975,19.964-35.474c7.199,7.412,11.392,17.695,27.77,15.492c2.007,3.253,12.954,20.665,19.658,25.48
			C1198.404,1777.361,1231.417,1775.466,1233.697,1796.908z"/>
		<path style="fill:#233862;" d="M1230.949,1655.892c-1.809,4.75-3.573,9.391-5.316,13.911
			c-18.585,48.49-32.573,82.928-32.573,82.928s-16.32,6.471-40.059-2.964c-16.548-6.569-18.563-23.204-18.563-23.204
			s0.381-27.737,3.442-76.173c0.294-4.75,0.621-9.707,0.98-14.849c2.386-34.905,6.068-78.656,11.711-129.194
			c10.393-93.103,32.781-108.67,26.691-115.185c-24.055-25.722-227.831,40.875-303.829-9.479
			c-56.726-37.584-31.299-116.808-31.299-116.808s23.478-51.442,128.105-21.984c171.344,48.251,319.156,40.243,345.858,121.896
			C1326.154,1395.541,1270.702,1551.328,1230.949,1655.892z"/>
		<path style="fill:#2A4E96;" d="M1376.224,1750.071c0,0-5.708,4.608-18.139,5.764c-59.711,5.545-77.872-6.438-77.872-6.438
			s-14.762-35.265-32.247-79.44c-1.885-4.772-3.813-9.652-5.742-14.599c-22.104-56.432-46.354-122.069-50.222-147.551
			c-7.332-48.382-25.732-71.074-46.387-72.523c-20.645-1.448-282.226,10.928-306.454-66.737
			c-18.923-60.67,3.758-119.357,3.758-119.357s10.001,20.384,79.419,13.967c75.235-6.962,280.558-10.502,324.963,20.013
			c36.953,25.383,82.883,229.966,108.757,359.76c0.948,4.782,1.874,9.467,2.778,14.031
			C1369.589,1711.734,1376.224,1750.071,1376.224,1750.071z"/>
		<path style="fill:#FFB27D;" d="M769.233,1372.669c0,0-34.546,9.531-41.901,16.706c-7.355,7.176-17.359,28.026-10.243,31.078
			c7.116,3.052,16.91-8.468,29.853-13.466s28.688-1.271,28.688-1.271c7.973-6.05,15.224-19.48,15.224-19.48L769.233,1372.669z"/>
		<path style="fill:#FF9E55;" d="M1103.925,1027.143c-13.017-54.221-49.948-98.2-72.209-99.998
			c-6.133-0.496-13.345-2.462-21.581-3.53c-17.463-2.244-39.088-3.573-61.618-1.416c-14.261,1.362-27.628,3.759-39.71,6.744
			c-6.144,1.525-11.962,3.192-17.387,4.957c-23.76,7.691-36.507,16.818-40.984,23.248c-22.899,32.89-38.674,85.563-38.674,85.563
			s5.763,21.374,51.203,37.813l-23.967,245.665c0,0,137.212,24.903,223.31-29.219c0,0-6.569-134.827,0-160.385
			c6.558-25.558,11.715-83.252,11.715-83.252C1101.075,1045.523,1103.925,1027.143,1103.925,1027.143z"/>
		<path style="fill:#FFB27D;" d="M1003.227,979.481c-41.258,12.811-91.601-51.13-87.38-52.175c6.463-7.311,8.776-33.43,4.041-70.924
			l3.352,0.231l56.218,4.163c0,0,0.875,17.441,2.814,33.707c1.285,10.695,3.043,20.889,5.324,25.336
			c0.674,1.314,11.928,2.588,11.958,2.616C1000.5,923.468,1021.266,973.879,1003.227,979.481z"/>
		<path style="fill:#ED985F;" d="M979.463,860.784c0,0,0.863,17.428,2.814,33.706c-30.823,2.889-50.485-23.148-59.036-37.867
			L979.463,860.784z"/>
		<path style="fill:#FFB27D;" d="M991.604,874.94c0,0-72.53,10.082-78.114-35.183c-5.583-45.265-18.705-74.449,27.368-82.8
			c46.073-8.351,57.218,7.81,62.756,22.465C1009.153,794.077,1010.328,871.15,991.604,874.94z"/>
		<path style="fill:#2C3A64;" d="M998.376,754.515c-12.898-12.244-21.023-8.218-25.279-3.542
			c-42.394-16.983-64.044,18.434-64.044,18.434c-0.891,33.077-22.04,54.548-22.04,54.548s14.247,6.563,43.825-5.022
			c9.035-3.539,16.553-11.187,22.649-20.093c-9.827,22.227-24.824,39.208-24.824,39.208c34.417-21.321,42.863-73.845,43.667-79.388
			c4.924,3.441,20.006,5.039,23.709,13.196c5.032,11.085,7.278,10.895,11.102,38.954
			C1007.142,810.809,1017.721,772.877,998.376,754.515z"/>
		<path style="fill:#FFFFFF;" d="M970.262,850.825c0.739,0,7.636,6.158,16.749,4.434c9.113-1.724,9.028-8.867,9.028-8.867
			s-6.22-0.985-11.688,0C978.883,847.377,970.262,850.825,970.262,850.825z"/>
		<path style="fill:#2A4E96;" d="M848.738,1180.973c0,0,70.32-39.907,92.611-127.787c0,0,89.418,0.758,130.31-6.486
			c0,0,10.63,25.576,11.096,60.516c0.824,61.853,0.726,153.104,31.741,191.104c54.25,66.466-282.079,39.281-282.079,39.281
			L848.738,1180.973z"/>
		<path style="fill:#FFB27D;" d="M836.452,1022.422c0,0-38.532,155.122-50.333,221.318
			c-11.801,66.196-16.886,128.929-16.886,128.929l21.621,13.567c-4.681,13.086,40.774-104.532,68.117-194.591
			c9.727-32.037,26.873-114.753,26.873-114.753L836.452,1022.422z"/>
		<path style="fill:#FF9E55;" d="M811.762,1042.709c0,0,13.073,37.089,82.069,50.162c68.997,13.073-41.035-95.143-41.035-95.143
			L811.762,1042.709z"/>
		<g>
			<path style="fill:#2A4E96;" d="M961.448,1071.886l-17.376,1.264c-4.031-55.354-41.082-120.196-52.652-139.25
				c5.425-1.765,11.243-3.432,17.387-4.957C923.166,953.029,957.352,1015.649,961.448,1071.886z"/>
		</g>
		<g>
			<path style="fill:#2A4E96;" d="M1078.771,1071.414l-23.687-14.955c-3.769-51.802-32.748-110.238-44.949-132.844
				c8.236,1.067,15.546,2.332,21.581,3.53C1046.206,955.666,1075.274,1023.414,1078.771,1071.414z"/>
		</g>
		<path style="fill:#FF9E55;" d="M1010.081,773.683c0,0-29.934,10.414-40.423,11.174c-3.123,0.227-49.551,3.417-49.551,3.417
			l-67.826,11.961c0,0-13.236-50.348,19.934-81.981l0.011-0.012c0.832-0.797,1.697-1.583,2.586-2.346
			c8.964-7.735,20.971-14.159,36.975-18.18C992.892,677.35,1009.739,770.744,1010.081,773.683z"/>
		<g>
			<path style="fill:#E27830;" d="M970.56,783.434l-12.815,1.708c-10.024-13.248-47.096-59.199-86.189-66.011
				c0.239-0.353,0.456-0.638,0.661-0.877l0.011-0.012c0.672-0.82,1.219-1.23,2.187-2.449c0.137,0.034,0.262,0.068,0.399,0.103
				C924.819,727.869,962.096,771.655,970.56,783.434z"/>
		</g>
		<path style="fill:#FF9E55;" d="M920.107,788.275c0,0-8.733,9.872-11.011,19.365c-2.278,9.492-46.323,15.188-49.361,10.252
			s-7.454-17.656-7.454-17.656L920.107,788.275z"/>
		<path style="fill:#E27830;" d="M920.107,788.275c0,0,81.144,1.514,118.231-18.015c2.826-1.488,2.35-5.684-0.753-6.442
			c-5.57-1.362-15.067-2.877-30.716-3.451C1006.868,760.367,977.821,784.478,920.107,788.275z"/>
		<g>
			<path style="fill:#FFFFFF;" d="M1358.836,1656.959c-36.528,11.134-73.373,13.28-96.392,13.28c-5.774,0-10.676-0.131-14.478-0.283
				c-1.885-4.772-3.813-9.652-5.742-14.599c10.633,0.708,63.535,3.192,113.834-12.43
				C1357.006,1647.71,1357.933,1652.395,1358.836,1656.959z"/>
		</g>
		<g style="opacity:0.5;">
			<path style="fill:#FFFFFF;" d="M1230.949,1655.892c-1.809,4.75-3.573,9.391-5.316,13.911
				c-35.177-2.658-67.402-12.146-87.753-19.413c0.294-4.75,0.621-9.707,0.98-14.849
				C1158.808,1642.873,1193.735,1653.69,1230.949,1655.892z"/>
		</g>
		<path style="fill:#FFB27D;" d="M790.853,1386.236c0,0-3.785,15.305-8.687,19.299s-8.897,13.255-11.983,13.618
			c-3.087,0.362-4.685-3.988-2.179-9.806c2.506-5.817,7.444-14.162,7.444-14.162L790.853,1386.236z"/>
	</g>
	<path style="opacity:0.95;fill:#F8FCFF;" d="M2276.767,401.026c0,0,18.403-34.892,62.413-31.015c0,0,63.893-58.155,132.026-7.754
		c0,0,72.426-12.488,126.063,10.813c35.761,15.536,47.573,31.832,47.573,31.832L2276.767,401.026z"/>
	<path style="opacity:0.95;fill:#F8FCFF;" d="M2135.524,503.478c0,0,12.244-34.892,41.525-31.015c0,0,42.511-58.155,87.845-7.754
		c0,0,48.188-12.488,83.875,10.813c23.793,15.536,31.652,31.832,31.652,31.832L2135.524,503.478z"/>
	<path style="opacity:0.95;fill:#F8FCFF;" d="M1854.44,338.657c0,0,14.192-27.432,48.132-24.383c0,0,49.273-45.721,101.818-6.096
		c0,0,55.854-9.818,97.218,8.501c27.579,12.214,36.688,25.026,36.688,25.026L1854.44,338.657z"/>
	<path style="opacity:0.95;fill:#F8FCFF;" d="M1542.373,598.89c0,0,13.219-31.87,44.831-28.329c0,0,45.894-53.118,94.833-7.082
		c0,0,52.022-11.407,90.55,9.876c25.687,14.19,34.171,29.076,34.171,29.076L1542.373,598.89z"/>
	<path style="opacity:0.95;fill:#F8FCFF;" d="M739.363,565.558c0,0,13.219-31.87,44.831-28.329c0,0,45.893-53.119,94.833-7.082
		c0,0,52.022-11.407,90.549,9.876c25.687,14.19,34.171,29.076,34.171,29.076L739.363,565.558z"/>
	<path style="fill:#82B378;" d="M485.224,1792.157c-5.874-9.228-23.552-33.177-47.099-30.007
		c-25.654,3.453,28.335,20.368,44.863,30.077c-3.67,0.051-6.827-0.243-9.144-1.069c-11.05-3.938-29.976,3.615-36.026,6.266h105.2
		c-0.728-2.517-2.623-6.626-7.522-9.62c-1.728-1.056-5.2-1.203-9.682-0.862c6.255-7.374,10.599-30.93-6.814-24.868
		c-12.721,4.428-12.687,18.82-11.438,27.337c-2.706,0.425-5.451,0.852-8.163,1.242c-5.237-26.693-23.763-104.927-61.311-107.013
		c-38.065-2.114,32.279,81.135,55.701,107.76C490.788,1791.76,487.898,1792.032,485.224,1792.157z"/>
	<g style="opacity:0.4;">
		<path style="fill:#9DB0F4;" d="M3029.565,1427.182h-170.31c-1.492,0-2.985,0.043-4.455,0.13
			c-40.821,2.31-73.318,36.256-73.318,77.644v286.746h-50.113v-286.746c0-70.519,57.368-127.888,127.887-127.888h145.885
			C3014.477,1392.57,3022.734,1409.162,3029.565,1427.182z"/>
	</g>
	<rect x="2721.126" y="1782.846" style="fill:#9DB0F4;" width="71.839" height="14.578"/>
	<g>
		<path style="fill:#9DB0F4;" d="M2987.797,1351.03c-17.866,4.129-33.805,13.346-46.181,26.037
			c-13.149,13.444-22.301,30.787-25.547,50.114c-0.86,5.109-1.308,10.349-1.308,15.698v347.602h-60.746V1442.88
			c0-5.251,0.262-10.448,0.785-15.568c1.775-17.801,6.58-34.73,13.89-50.244c15.786-33.521,43.228-60.506,77.065-75.692
			C2960.67,1316.997,2974.909,1333.338,2987.797,1351.03z"/>
	</g>
	<rect x="2841.602" y="1779.751" style="fill:#839DE5;" width="87.084" height="17.673"/>
	<path style="fill:#82B378;" d="M2689.43,1797.424h-65.105c-3.488-2.959,2.415-9.681,8.582-10.132
		c2.68-0.202,6.066,0.358,9.938,1.176c0.896-11.899,6.012-65.393,25.294-63.243c21.681,2.406,0,23.558-6.129,36.08
		c-4.54,9.274-9.329,22.576-11.518,28.854c1.76,0.381,3.582,0.755,5.443,1.098c2.874-8.823,13.566-38.502,27.163-36.773
		c15.965,2.025,9.548,13.925-1.768,20.987c-8.301,5.194-18.496,12.577-23.34,16.145c4.104,0.669,8.388,1.121,12.733,1.02
		C2681.875,1792.369,2687.318,1795.655,2689.43,1797.424z"/>
</g>
</svg>
