<svg width="24" height="25" viewBox="0 0 24 25" fill="none" xmlns="http://www.w3.org/2000/svg">
<g clip-path="url(#clip0_41_49)">
<path d="M10.08 2.42001C5.31948 2.42001 1.44 6.29949 1.44 11.06C1.44 15.8205 5.31948 19.7 10.08 19.7C11.8185 19.7 13.4363 19.1787 14.7938 18.29L20.8219 24.3181L22.8581 22.2819L16.9078 16.3316C18.0391 14.8704 18.72 13.0447 18.72 11.06C18.72 6.29949 14.8405 2.42001 10.08 2.42001ZM10.08 4.34001C13.803 4.34001 16.8 7.33702 16.8 11.06C16.8 14.783 13.803 17.78 10.08 17.78C6.35701 17.78 3.36 14.783 3.36 11.06C3.36 7.33702 6.35701 4.34001 10.08 4.34001Z" fill="#505050"/>
</g>
<defs>
<clipPath id="clip0_41_49">
<rect width="24" height="24" fill="white" transform="translate(0 0.5)"/>
</clipPath>
</defs>
</svg>
